<?xml version="1.0" standalone="no"?>
<svg xmlns="http://www.w3.org/2000/svg" viewBox="0 0 121.612 36" width="121.612" height="36"><g fill="#c9ae27" color="#c9ae27" transform="translate(0 4) scale(0.0546875)"><svg width="512.0" height="512.0" x="0.0" y="0.0" viewBox="0 0 512 512"><path d="M501.072,426.936c-6.953-6.953-16.171-10.828-25.999-10.922l-53.187-53.186l26.39-26.406  c3.25-3.234,4.062-8.203,2-12.312l-15.078-30.17c-1.531-3.062-4.453-5.203-7.843-5.75c-3.375-0.547-6.812,0.562-9.25,2.984  l-22.624,22.625l-79.123-79.131L458.683,92.335c1.625-1.633,2.688-3.75,3.016-6.031l7.547-52.804  c0.469-3.32-0.641-6.671-3.016-9.046s-5.734-3.492-9.062-3.016l-52.795,7.539c-2.281,0.328-4.406,1.391-6.031,3.015L256.016,174.325  L113.676,31.992c-1.625-1.625-3.75-2.687-6.031-3.015l-52.796-7.539c-3.328-0.477-6.671,0.641-9.046,3.016s-3.5,5.727-3.016,9.046  l7.547,52.804c0.312,2.281,1.375,4.398,3.015,6.031l142.325,142.333l-79.139,79.131l-22.624-22.625  c-2.422-2.422-5.859-3.531-9.25-2.984s-6.297,2.688-7.828,5.75l-15.093,30.17c-2.047,4.109-1.25,9.078,2,12.312l26.406,26.406  l-53.187,53.186c-9.828,0.094-19.062,3.969-26.015,10.922c-7.046,7.047-10.937,16.438-10.937,26.406s3.891,19.344,10.937,26.391  c7.047,7.062,16.422,10.938,26.406,10.938c9.969,0,19.343-3.875,26.39-10.938c7.172-7.172,10.812-16.562,10.906-25.984  l53.202-53.201l26.406,26.389c2.047,2.047,4.781,3.125,7.546,3.125c1.625,0,3.25-0.359,4.766-1.125l30.171-15.078  c3.062-1.547,5.203-4.453,5.765-7.842c0.547-3.375-0.562-6.828-3-9.25l-22.624-22.625l79.139-79.139l79.123,79.139l-22.624,22.625  c-2.422,2.422-3.531,5.875-2.984,9.25c0.547,3.389,2.688,6.295,5.75,7.842l30.17,15.078c1.531,0.766,3.156,1.125,4.781,1.125  c2.766,0,5.484-1.078,7.547-3.125l26.391-26.389l53.201,53.201c0.109,9.422,3.734,18.812,10.906,25.984  c7.062,7.062,16.438,10.938,26.406,10.938l0,0c9.969,0,19.343-3.875,26.39-10.938C515.634,465.186,515.634,441.498,501.072,426.936z   M448.276,426.936c-1.281,1.281-2.438,2.641-3.5,4.047l-15.359-15.359l7.547-7.547l15.359,15.359  C450.901,424.498,449.558,425.67,448.276,426.936z M380.403,328.891l-7.547,7.531l-79.139-79.131l7.547-7.538L380.403,328.891z   M70.942,79.765L65.911,44.57l35.202,5.023l139.809,139.817l-7.531,7.539l-87.17-87.162c-4.172-4.164-10.921-4.164-15.078,0  c-4.172,4.172-4.172,10.921,0,15.085l87.154,87.162l-7.547,7.546L70.942,79.765z M63.739,426.936  c-1.266-1.266-2.625-2.438-4.031-3.5l15.343-15.359l7.547,7.547l-15.359,15.359C66.177,429.576,65.021,428.217,63.739,426.936z   M48.662,464.654c-3.031,3.016-7.047,4.688-11.312,4.688c-4.281,0-8.296-1.672-11.328-4.688c-3.016-3.031-4.672-7.047-4.672-11.312  c0-4.281,1.656-8.297,4.672-11.312c3.031-3.031,7.046-4.688,11.328-4.688c4.266,0,8.281,1.656,11.312,4.688  C54.896,448.264,54.896,458.42,48.662,464.654z M97.676,400.547L90.145,393l15.078-15.094l7.547,7.547L97.676,400.547z   M163.893,406.422l-28.499-28.5v-0.016l-22.625-22.625l0,0l-28.5-28.5l5.016-10.061l19.703,19.701c0,0,0,0,0.016,0l38.062,38.078  l26.89,26.891L163.893,406.422z M154.253,351.516l226.635-226.643c4.156-4.164,4.156-10.914,0-15.085  c-4.172-4.164-10.922-4.164-15.094,0L139.175,336.422l-7.546-7.531l279.29-279.297l35.187-5.023l-5.031,35.194L161.799,359.062  L154.253,351.516z M271.093,279.924l7.547-7.547l79.123,79.139l-7.531,7.547L271.093,279.924z M348.122,406.422l-10.062-5.031  l19.702-19.703c0,0,0,0,0.016,0l45.25-45.266l0,0l19.702-19.701l5.031,10.061l-28.499,28.5l0,0l-22.641,22.625v0.016  L348.122,406.422z M406.794,377.906L421.887,393l-7.547,7.547l-15.077-15.094L406.794,377.906z M485.995,464.654  c-3.016,3.016-7.047,4.688-11.312,4.688l0,0c-4.281,0-8.297-1.672-11.312-4.688c-6.234-6.234-6.234-16.391,0-22.625  c3.016-3.031,7.031-4.688,11.312-4.688c4.266,0,8.297,1.656,11.312,4.688C492.229,448.264,492.229,458.42,485.995,464.654z"></path></svg></g><path fill="#CE2D2D" fill-rule="nonzero" d="M6.36 16.75L3.46 16.75Q3.36 16.75 3.34 16.63L3.34 16.63L0.02 0.14Q0 0.05 0.12 0.05L0.12 0.05L2.83 0.05Q2.93 0.05 2.95 0.14L2.95 0.14L4.92 11.14L6.84 0.14Q6.86 0.05 6.96 0.05L6.96 0.05L9.65 0.05Q9.77 0.05 9.74 0.14L9.74 0.14L6.48 16.63Q6.46 16.75 6.36 16.75L6.36 16.75ZM13.99 16.75L11.28 16.75Q11.16 16.75 11.16 16.63L11.16 16.63L11.18 0.14Q11.18 0.05 11.28 0.05L11.28 0.05L13.97 0.05Q14.06 0.05 14.06 0.14L14.06 0.14L14.09 16.63Q14.09 16.75 13.99 16.75L13.99 16.75ZM19.01 16.75L16.30 16.75Q16.20 16.75 16.20 16.63L16.20 16.63L16.25 0.14Q16.25 0.05 16.34 0.05L16.34 0.05L21.19 0.05Q22.49 0.05 23.58 0.68Q24.67 1.32 25.32 2.39Q25.97 3.46 25.97 4.80L25.97 4.80Q25.97 5.69 25.70 6.40Q25.44 7.10 25.08 7.60Q24.72 8.09 24.43 8.33L24.43 8.33Q25.73 9.77 25.73 11.71L25.73 11.71L25.75 16.63Q25.75 16.75 25.63 16.75L25.63 16.75L22.92 16.75Q22.82 16.75 22.82 16.68L22.82 16.68L22.82 11.71Q22.82 10.85 22.21 10.21Q21.60 9.58 20.71 9.58L20.71 9.58L19.13 9.58L19.10 16.63Q19.10 16.75 19.01 16.75L19.01 16.75ZM19.13 2.93L19.13 6.70L21.19 6.70Q21.94 6.70 22.51 6.14Q23.09 5.59 23.09 4.80L23.09 4.80Q23.09 4.03 22.52 3.48Q21.96 2.93 21.19 2.93L21.19 2.93L19.13 2.93ZM32.18 16.73L27.89 16.75Q27.77 16.75 27.77 16.63L27.77 16.63L27.82 0.14Q27.82 0.05 27.91 0.05L27.91 0.05L32.40 0.02Q33.72 0 34.81 0.65Q35.90 1.30 36.55 2.39Q37.20 3.48 37.20 4.80L37.20 4.80L37.20 11.69Q37.20 13.08 36.53 14.22Q35.86 15.36 34.73 16.03Q33.60 16.70 32.18 16.73L32.18 16.73ZM30.72 2.93L30.70 13.80L32.18 13.80Q33.07 13.80 33.68 13.18Q34.30 12.55 34.30 11.69L34.30 11.69L34.30 4.78Q34.30 4.01 33.73 3.44Q33.17 2.88 32.40 2.90L32.40 2.90L30.72 2.93ZM37.56 16.63L37.56 16.63L40.54 0.14Q40.56 0.05 40.66 0.05L40.66 0.05L44.14 0.05Q44.23 0.05 44.26 0.14L44.26 0.14L47.11 16.63Q47.14 16.75 47.02 16.75L47.02 16.75L44.35 16.75Q44.26 16.75 44.23 16.63L44.23 16.63L43.97 14.88L40.70 14.88L40.44 16.63Q40.42 16.75 40.32 16.75L40.32 16.75L37.66 16.75Q37.56 16.75 37.56 16.63ZM42.26 5.57L41.18 12.31L43.49 12.31L42.50 5.57L42.36 4.68L42.26 5.57ZM51.43 16.75L48.72 16.75Q48.62 16.75 48.62 16.63L48.62 16.63L48.67 0.14Q48.67 0.05 48.77 0.05L48.77 0.05L51.70 0.05Q51.79 0.05 51.86 0.14L51.86 0.14L54.05 3.31L56.23 0.14Q56.30 0.05 56.40 0.05L56.40 0.05L59.35 0.05Q59.45 0.05 59.45 0.14L59.45 0.14L59.50 16.63Q59.50 16.75 59.40 16.75L59.40 16.75L56.69 16.75Q56.59 16.75 56.59 16.63L56.59 16.63L56.57 4.39L54.05 8.04L51.55 4.39L51.53 16.63Q51.53 16.75 51.43 16.75L51.43 16.75ZM64.34 16.75L61.63 16.75Q61.51 16.75 61.51 16.63L61.51 16.63L61.54 0.14Q61.54 0.05 61.63 0.05L61.63 0.05L64.32 0.05Q64.42 0.05 64.42 0.14L64.42 0.14L64.44 16.63Q64.44 16.75 64.34 16.75L64.34 16.75ZM69.17 16.75L66.77 16.75Q66.58 16.75 66.58 16.58L66.58 16.58L66.55 0.24Q66.55 0.05 66.74 0.05L66.74 0.05L68.90 0.05L72.96 9.50L72.84 0.24Q72.84 0.05 73.06 0.05L73.06 0.05L75.43 0.05Q75.58 0.05 75.58 0.24L75.58 0.24L75.60 16.61Q75.60 16.75 75.48 16.75L75.48 16.75L73.37 16.75L69.22 7.92L69.38 16.56Q69.38 16.75 69.17 16.75L69.17 16.75ZM85.54 16.75L77.78 16.75Q77.69 16.75 77.69 16.63L77.69 16.63L77.71 0.14Q77.71 0.05 77.81 0.05L77.81 0.05L85.51 0.05Q85.61 0.05 85.61 0.17L85.61 0.17L85.61 2.86Q85.61 2.95 85.51 2.95L85.51 2.95L80.59 2.95L80.59 6.70L85.51 6.70Q85.61 6.70 85.61 6.79L85.61 6.79L85.63 9.50Q85.63 9.60 85.54 9.60L85.54 9.60L80.59 9.60L80.59 13.80L85.54 13.80Q85.63 13.80 85.63 13.92L85.63 13.92L85.63 16.66Q85.63 16.75 85.54 16.75L85.54 16.75Z" transform="translate(36, 9.624)"></path></svg>